<svg enable-background="new 0 0 512 512" height="25" viewBox="0 0 512 512" width="25" xmlns="http://www.w3.org/2000/svg"><g><path d="m500.862 267.152-99.51-29.268c-21.264-6.254-43.284-9.425-65.449-9.425h-56.371v-8.532c0-12.976-10.557-23.532-23.532-23.532-3.398 0-6.626.729-9.546 2.031-2.218-5.861-7.873-10.048-14.502-10.048h-36.764c-13.763 0-27.255 2.505-40.102 7.446l-84.348 32.441-4.53-15.102c-3.01-10.03-12.067-16.77-22.54-16.77h-36.168c-2.371 0-4.602 1.121-6.017 3.022-1.416 1.902-1.848 4.361-1.167 6.632l23.762 79.208c.639 21.261 18.121 38.363 39.534 38.363 13.008 0 24.567-6.312 31.783-16.032h273.111c7.216 9.72 18.775 16.032 31.783 16.032s24.567-6.312 31.783-16.032h64.41c8.556 0 15.516-6.961 15.516-15.517v-10.034c.002-6.832-4.578-12.953-11.136-14.883zm-244.862-55.757c4.705 0 8.532 3.827 8.532 8.532v8.532h-17.064v-8.532c0-4.704 3.827-8.532 8.532-8.532zm-212.332 0c3.797 0 7.081 2.443 8.172 6.08l8.156 27.188c-11.317 1.031-21.269 6.845-27.816 15.401l-14.601-48.67h26.089zm19.945 97.226c-13.545 0-24.564-11.02-24.564-24.564s11.02-24.564 24.564-24.564 24.564 11.02 24.564 24.564-11.019 24.564-24.564 24.564zm38.627-33.097h206.552c.177 0 .345 0 .477.318s.014.437-.112.562l-16.184 16.184h-190.733c.607-2.75.937-5.603.937-8.532s-.33-5.782-.937-8.532zm211.947 17.065 5.577-5.577c4.454-4.453 5.773-11.091 3.363-16.909s-8.037-9.578-14.335-9.578h-213.396c-4.769-6.424-11.439-11.35-19.168-13.958l-1.167-3.891 85.41-32.85c11.121-4.277 22.802-6.446 34.717-6.446h36.764c.285 0 .516.231.516.517v24.564h-80.677c-4.142 0-7.5 3.357-7.5 7.5 0 4.142 3.358 7.5 7.5 7.5h184.112c15.789 0 31.499 1.726 46.879 5.13-13.056 6.472-22.056 19.935-22.056 35.467 0 2.93.33 5.782.937 8.532h-47.476zm86.103 16.032c-13.545 0-24.565-11.02-24.565-24.564s11.02-24.564 24.565-24.564 24.564 11.02 24.564 24.564-11.019 24.564-24.564 24.564zm96.71-16.549c0 .285-.231.517-.516.517h-57.566c.607-2.75.937-5.603.937-8.532 0-7.708-2.224-14.903-6.051-20.992l62.826 18.478c.218.064.371.268.371.495v10.034z"/><path d="m63.693 276.557h-.08c-4.142 0-7.46 3.357-7.46 7.5 0 4.142 3.398 7.5 7.54 7.5s7.5-3.358 7.5-7.5c0-4.143-3.358-7.5-7.5-7.5z"/><path d="m400.371 276.557h-.08c-4.142 0-7.46 3.357-7.46 7.5 0 4.142 3.398 7.5 7.54 7.5s7.5-3.358 7.5-7.5c0-4.143-3.358-7.5-7.5-7.5z"/></g></svg>